<svg xmlns:dc="http://purl.org/dc/elements/1.1/" xmlns:cc="http://creativecommons.org/ns#" xmlns:rdf="http://www.w3.org/1999/02/22-rdf-syntax-ns#" xmlns:svg="http://www.w3.org/2000/svg" xmlns="http://www.w3.org/2000/svg" viewBox="0 0 762 762" fill="none"><metadata><rdf:RDF><cc:Work><dc:format>image/svg+xml</dc:format><dc:type rdf:resource="http://purl.org/dc/dcmitype/StillImage"/><dc:title>Adventurer</dc:title><dc:creator><cc:Agent><dc:title>Lisa Wischofsky</dc:title></cc:Agent></dc:creator><dc:source>https://www.instagram.com/lischis_adventures/</dc:source><cc:license rdf:resource="https://creativecommons.org/licenses/by/4.0/"/></cc:Work><cc:License rdf:about="https://creativecommons.org/licenses/by/4.0/"><cc:permits rdf:resource="https://creativecommons.org/ns#Reproduction"/><cc:permits rdf:resource="https://creativecommons.org/ns#Distribution"/><cc:permits rdf:resource="https://creativecommons.org/ns#DerivativeWorks"/><cc:requires rdf:resource="https://creativecommons.org/ns#Notice"/><cc:requires rdf:resource="https://creativecommons.org/ns#Attribution"/></cc:License></rdf:RDF></metadata><mask id="avatarsRadiusMask"><rect width="762" height="762" rx="0" ry="0" x="0" y="0" fill="#fff"/></mask><g mask="url(#avatarsRadiusMask)"><path d="M396.01 164.85c37.82 4.9 74.21 19.64 104.8 42.39 6.15 4.84 12.48 9.33 18.02 14.92 23.77 21.98 42.73 49.02 55.13 78.95 9.35 22.31 14.72 46.04 16.64 70.14 6.62.81 13.05 2.14 19.12 5 15.54 6.93 27.08 20.94 31.78 37.21 2.63 9.56 3.56 19.75 1.72 29.55-2.96 18.76-13.72 36.13-29.37 46.92-10.94 7.65-24.49 12.03-37.86 11.68-5.13-.05-10.04-1.6-15.13-1.79-1.85 2.17-3.23 4.84-4.76 7.25-18.66 29.62-44.57 54.51-74.64 72.4-28.1 16.73-59.9 27.16-92.46 30.32-11.08.7-21.87 2.05-32.98.74-51.69-2.3-102.07-23.44-140.15-58.43-29.03-26.55-50.84-60.83-62.54-98.39-7.09-22.85-10.62-46.78-10.07-70.71.52-40.34 12.53-80.58 33.94-114.76 19.1-30.81 45.91-56.58 77.2-74.83 29.63-17.28 63.35-27.68 97.59-29.87 14.66-1.47 29.44-.37 44.02 1.31Z" fill="#000"/><path d="M363 169.06c48.47-1.39 97.32 14.7 135.81 44.12 6.55 4.06 11.72 9.49 17.36 14.64 24.33 22.63 43.2 50.95 54.93 82.02 7.43 19.61 11.86 40.2 13.56 61.09-8.89.74-17.34 2.34-25.38 6.38-2.19 1.03-1.89 4.95.68 5.23 2.35.23 4.98-1.51 7.24-2.2 14.62-5.37 31.32-4.35 44.78 3.68 11.69 6.78 20.09 18.16 23.89 31.06 2.6 8.25 2.68 17.41 1.76 25.95-2.5 17.35-12.35 33.73-26.73 43.81-15.71 11.33-37.17 14.64-54.93 6.2-3.17-1.43-5.94-3.58-9.08-5.05-2.95-1.09-4.88 2.79-2.7 4.75 3.17 2.76 7.34 4.52 11 6.56-20.14 34.15-49.45 62.7-84.41 81.47-30.2 16.31-64.44 25.53-98.78 26.15-27.63.72-55.33-4.04-81.21-13.72-30.32-11.24-57.84-29.43-80.37-52.6-22.67-23.37-39.92-51.88-50.2-82.77-14.96-44.64-14.91-94.01.27-138.59 11.05-33.06 30.28-63.21 55.37-87.39 29.67-28.73 67.65-48.54 108.13-56.67 12.8-2.52 25.94-4.24 39.01-4.12Z" fill="rgba(158, 86, 34, 1)"/><path d="M605.03 404.4c2.63-.1 3.44 3.8 1.36 4.98-3.69 1.83-7.82 2.77-11.64 4.35-5.82 2.04-11.28 4.76-16.68 7.72 4.29 2.34 8.86 4.74 12.71 7.76 2.58 2.09 4.85 4.35 5.33 7.8-.26 3.59-2.73 6.55-5.45 8.69-5.86 4.66-13.92 7.18-20.79 10.26-1.75.62-4.43 1.99-5.59-.26-1.02-1.74-.06-3.11 1.57-3.87 6.65-3.3 14.86-5.62 20.79-10.16 1.37-1.14 3.39-2.74 3.61-4.62-4.07-5.63-12.42-8.59-18.23-12.09-2.34-1.72-2.29-4.24-.16-6.13 7.27-5.64 16.98-9.26 25.57-12.38 2.42-.83 5.03-1.95 7.6-2.05Z" fill="#000"/><g transform="translate(-161 -83)"><path d="M559.03 444.54c11.35-.74 22.51-.03 33.16 4.25 11.38 4.42 21.31 12.41 26.22 23.8 1.35 3.29 3.11 7.56 2.23 11.12-3.07 3.24-8.56 1.01-12.56 1.02-12.66-.59-25.44-.46-38.07.6-13.92 1.01-28.4 1.71-41.93 5.23-8.57 1.76-17 4.47-25.23 7.41-3.69 1.26-6.8 2.95-10.86 2.21 1.31-16.83 12.96-31.41 26.26-40.95 12.13-8.21 26.19-13.34 40.78-14.69Z" fill="#000"/><path d="M572.98 450.16c11.61 1.09 23.19 4.98 31.87 13 4.94 4.52 8.31 10.31 10.19 16.72-16.72-2.17-34.3-.87-51.09.1-7.64.88-15.37.98-22.94 2.25 1.15-9.27 2.15-18.43 1.05-27.77 10.01-3.52 20.28-5.48 30.92-4.3Z" fill="#fff"/><path d="M369.22 468.68c17.1-2.83 35.63-.23 50.88 8.19 8.69 4.83 16.86 12.07 20.61 21.48.73 2.06 1.58 4.59-.73 5.96-2.65.08-5.37-.59-7.99-1.01-9.41-1.81-19.4-2.11-28.99-2.57-10.7-.45-21.3.47-31.99.59-12.49.84-24.77 2.93-37.1 5-2.45.58-3.14-2.39-3.07-4.24.15-12.37 9.08-22.32 19.76-27.45 6-2.54 12.23-4.67 18.62-5.95Z" fill="#000"/><path d="M516.85 467.34c-.57 6.96-.53 13.45.13 20.4-6.16 1.8-12.2 3.88-18.22 6.1 3.2-10.63 9.88-19.24 18.09-26.5ZM374.58 473.35c9.89-.51 19.68.03 29.2 2.93 12.4 3.71 23.79 10.16 30.58 21.56-20.19-3.58-39.98-2.61-60.31-2.46.88-7.35.67-14.65.53-22.03ZM350.49 480.58c-.28 5.86-.25 11.64.01 17.5-4.71.28-9.41.74-14.04 1.68 1.62-7 5.15-12.07 10.65-16.56 1.12-.89 2.25-1.76 3.38-2.62Z" fill="#fff"/></g><g transform="translate(-161 -83)"><g fill="#000"><path d="M613.54 401.51c1.59 1.01 1.08 2.86 1.24 4.48-.06 11.34-.05 22.7-.12 34.04.32 2.75-2.42 4.22-4.62 5-39.99 13.74-80.12 27.25-120.05 41.12-2.53.2-2.84-1.75-3.51-3.66-1.63-6-3.3-11.98-5.01-17.95.97 5.75.98 11.66 1.36 17.47-.02 1.44.45 3.94-.99 4.85-1.95 1.4-4.07.13-4.6-2.03-3.64-12.73-7.02-25.58-10.66-38.32-.39-1.83-.65-3.91 1.36-4.88 2.11-.49 3.41.47 4 2.44 1.27 4.55 2.55 9.11 3.68 13.7-.73-5.24-.94-10.49-1.18-15.77-.01-1.27-.14-3.73 1.66-3.79 1.47-.26 2.98-.38 4.43-.72 41.23-11.74 82.37-23.44 123.6-35.22 3.27-.87 6.02-2.08 9.41-.76ZM324 433.87c13.64 1.39 27.36 1.44 41 2.58 21.04 1.05 42.11 2.67 63.14 3.42 7.79.78 15.61 1.12 23.44 1.68 2.77 2.19 1.08 8.08 1.91 11.33.56-2.97.18-6.91 1.92-9.46 2.15-1.8 5.08-.17 4.76 2.56-2.36 14.03-4.77 28.14-7.02 42.18-.8 2.93-4.48 2.56-5.29-.15-.27-4.92-.21-9.89-.28-14.83-1.03 4.29-1.47 8.69-2.47 12.98-.43 1.64-1.17 2.84-3.1 2.4-39.48-6.89-79.4-14.23-118.87-21.29-1.88-.2-2.83-1.46-3.09-3.26-1.45-7.98-2.5-16.04-4.12-23.99-.23-1.72-.74-3.14.56-4.58 2.12-2.29 4.72-1.68 7.51-1.57Z"/></g></g><g transform="translate(-161 -83)"><path d="M534.29 562.56c7.92 1.16 15.41 4.36 21.23 9.92 8.09 7.57 12.12 18.53 11.86 29.52.34 9.78-2.38 19.12-6.68 27.81-7.12 14.02-18.35 26.07-31.98 33.93-11.83 6.96-25.09 10.44-38.72 11.36-30.63 1.61-61.2-11.84-82.09-34.04-6.38-8.12-11.86-18.46-11.46-29.06-.09-7.88 4.02-15.65 10.45-20.16 6.92-4.97 14.77-6.31 23.1-6.79 14.2.15 27.79 4.32 40.17 11.12 8.52-12.59 20.01-22.9 34.03-28.96 9.42-4.2 19.83-5.97 30.09-4.65Z" fill="#000"/><path d="M533.47 568.33c9.24 1.28 17.97 6.24 22.9 14.3 5.96 9.59 6.65 21.04 3.81 31.79-4.05-.55-7.9-.69-11.97-.2-10.84.62-21.73 3.37-31.96 6.96 1.41-7.49 2.53-16.65-.57-23.85-1.7-3.84-5.41-6.2-9.58-4.33-6.58 3.12-10.3 11.89-13.02 18.22-4.75-1.63-11.32-3.78-16.06-1.23-3.89 2.19-3.78 6.53-2.42 10.26 2.56 6.21 7.71 11.08 12.64 15.44-12.05 7.91-22.81 17.29-31.17 29.09-14.95-4.74-28.67-13.02-40.01-23.82-6.73-6.44-11.99-15.15-13.61-24.38-1.13-6.35.66-13.23 5.31-17.81 4.47-4.59 11-6.66 17.2-7.5 11.79-1.52 24.47 1.81 35.25 6.5 3.75 1.52 7.09 3.83 10.78 5.43 2.67.3 3.71-3.41 5.1-5.15 9.06-13.35 22.95-24.15 38.65-28.36 5.96-1.82 12.57-1.87 18.73-1.36Z" fill="#8F2E45"/><path d="M508.97 597.86c2.64 2.37 2.74 6.8 2.88 10.12-.08 10.91-3.14 21.91-7.97 31.65-4.01-2.1-7.93-4.17-11.35-7.18-4.32-3.77-9.1-7.97-11.95-13.01-.89-1.45-.92-3-1.16-4.63 5.16-.73 9.19 1.01 13.81 2.87 2.79 1 3.86-1.41 4.96-3.44 2.44-5.54 5.13-13.33 10.78-16.38Z" fill="#D32020"/><path d="M558.62 619.94c-2.6 7.12-6.32 13.69-11.01 19.63-3.77 4.78-8.55 8.9-13.01 13.05-9.94 8.14-22.52 13.35-35.12 15.57-12.51 1.97-25.18 1.2-37.51-1.56 8.12-11.13 18.65-19.92 30.3-27.15 3.76 2.33 7.58 5.16 11.76 6.65 1.39.62 2.77-.42 3.56-1.51 3.17-4.9 4.87-10.02 6.78-15.42.38-1.43 1.62-1.55 2.8-2.1 12.98-4.74 27.57-8.13 41.45-7.16Z" fill="#EA869E"/></g><g transform="translate(-161 -83)"/><g transform="translate(-161 -83)"><path d="M440.21 189.23c1.82-.15 3.61-1.05 4.73.89 1.51 2.06 1.09 3.45-.62 5.17-8.4 8.19-15.44 17.64-18.3 29.22 30.03-13.11 63.35-19.56 95.98-20.93 9.35-.74 18.62-.76 27.98-.03 27.24 1.14 54.75 5.74 80.54 14.74 18.43 6.49 36.95 15.6 51.95 28.27 12.36 10.44 22.4 23.27 26.58 39.15 3.77-.25 7.29-.41 10.68 1.56 7.23 3.84 12.41 12.03 16.03 19.14 7.23 14.48 11.37 30.79 14.44 46.61 3.35 17.18 4.82 34.53 5.84 51.98.07 12.96.52 26.14-.8 39.03-.43 4.23-.31 8.7-1.35 12.83-.95 2.98-4.37 2.73-6.88 3.03-8.27.28-17.84 1.75-24.97 6.2-1.32 2.53-1.49 5.65-2.73 8.24-2.01 2.29-4.83 3.94-7.26 5.76-6.26 4.36-12.21 9.15-18.46 13.52-1.79 1.14-4.14 2.68-5.91.62-1.39-1.23-1.39-2.49-1.11-4.22 3.22-19.56 2.88-40.22 2.25-60 .09-7.78-.9-15.44-1.36-23.21-6.69-.5-13.21-2.12-19.27-5.02-14.46-6.84-26.51-18.83-34.18-32.79-6.09-11.04-9.41-23.41-8.23-36.06-52.79 8.56-106.29 13.25-159.78 13.37-10.76-.32-21.48.01-32.23-.92-14.32-.65-28.59-1.9-42.76-4.03-11.24-1.78-22.65-4.02-33.28-8.1-4.9 5.03-8.02 10.78-11.92 16.58-2.31 3.46-3.93 7.34-6.34 10.71-1.04 1.6-3.14 1.8-4.36.29-1.2-2.37-1.6-5.21-2.13-7.8-2.35-12.43-1.19-25.41 4.07-36.97-2.41-4.53-4.62-9.07-5.82-14.09-3.86-14.97-.72-30.8 6.45-44.27 9.36-17.81 24.92-32.5 41.64-43.39 18.57-12.13 39.26-20.34 60.89-25.08Z" fill="#000"/><path d="M435.92 196.13c-6.96 8.05-12.92 16.5-15.33 27.05-.33 2-1.3 4.59-.17 6.42 1.45.75 3.07 1.21 4.61 1.72 41.78-18.93 88.5-24.52 133.96-21.54 29.03 2.24 58.42 8.33 85.13 20.14 15.2 6.8 30.37 15.94 42 27.97 8.88 9.11 15.81 20.3 18.03 32.97.59.44 1.18.89 1.78 1.33 4.08-.71 7.57-1.75 11.44.46 6.46 3.65 10.86 11.47 14.01 17.96 7.34 15.7 11.46 33.35 14.37 50.38 2.02 12.58 3.51 25.29 4.06 38.01.1 8.02.84 15.98.57 24-.42 10.49-.57 20.96-1.8 31.4-7.76.33-15.22.97-22.58 3.66-2.81 1.06-6.39 2.23-8.38 4.57-1.53 2.71-1.97 6.06-2.97 9.01-7.28 5.15-14.53 10.35-21.76 15.59 1.56-9.37 1.41-18.77 2.13-28.21.5-9.4-.6-18.64-.7-28.02-.24-5.39-.22-10.67-.79-16.01-.52-4.67-.51-8.99-2.02-13.48-5.68-.78-11.19-1.07-16.57-3.26-15.98-5.83-29.28-19.16-36.96-34.15-5.18-10.62-8.45-22.91-5.57-34.66-2.58-3.44-7.28-2.27-10.91-1.73-44.79 7.18-90.13 11.61-135.5 12.41-13.01.59-26 .54-39.01-.09-10.01-.16-20-.54-29.97-1.44-17.05-1.48-34.61-3.56-51.02-8.55-5.89-1.88-12.04-4.3-17.01-8.05-10.89-11.01-16.12-27.82-12.69-43 2.91-15.95 12.59-30.49 23.89-41.81 20.34-20.4 48.01-34.01 75.73-41.05ZM340.46 321.25c3.14 4.26 7.23 7.13 11.81 9.64-4.99 6.61-9.55 13.52-14.01 20.49-1.13-8.99-1.42-17.78 1.2-26.56.33-1.19.67-2.38 1-3.57Z" fill="rgba(219, 163, 190, 1)"/><path d="M718.21 480.6c2 1.12 1.55 3.34-.03 4.59-7.96 6.81-16.37 13-24.89 19.08-1.55.96-3.29 1.85-4.72.17-1.79-1.75.01-3.31 1.33-4.57 3.66-3.04 7.78-5.52 11.6-8.35 4.08-2.92 7.87-6.18 11.84-9.23 1.53-1.01 2.91-2.33 4.87-1.69Z" fill="#000"/></g></g></svg>