<svg id="svg" version="1.1" xmlns="http://www.w3.org/2000/svg" xmlns:xlink="http://www.w3.org/1999/xlink" width="400" height="400" viewBox="0, 0, 400,400"><g id="svgg"><path id="path0" d="M0.000 167.200 C 0.000 292.068,0.115 334.400,0.456 334.400 C 0.707 334.400,1.157 334.085,1.457 333.700 C 1.976 333.033,1.990 333.033,1.758 333.700 C 1.484 334.487,2.946 334.735,3.412 333.981 C 3.572 333.722,3.849 333.701,4.136 333.926 C 4.771 334.425,5.999 334.364,6.006 333.833 C 6.009 333.595,6.176 333.658,6.376 333.974 C 6.691 334.473,6.832 334.473,7.446 333.974 C 7.888 333.615,8.041 333.588,7.853 333.900 C 7.488 334.508,7.799 334.536,8.826 333.986 C 9.360 333.700,9.600 333.700,9.600 333.986 C 9.600 334.596,13.887 334.515,14.135 333.900 C 14.296 333.500,14.343 333.500,14.368 333.900 C 14.386 334.175,14.591 334.400,14.824 334.400 C 15.057 334.400,15.136 334.220,15.000 334.000 C 14.864 333.780,15.134 333.600,15.600 333.600 C 16.171 333.600,16.349 333.763,16.147 334.100 C 15.943 334.440,16.063 334.424,16.523 334.051 C 16.895 333.749,17.200 333.682,17.200 333.901 C 17.200 334.120,17.650 334.300,18.200 334.300 C 18.750 334.300,19.200 334.120,19.200 333.901 C 19.200 333.643,19.376 333.647,19.700 333.914 C 20.259 334.374,28.060 334.421,27.777 333.962 C 27.579 333.642,28.365 333.694,29.000 334.042 C 29.868 334.519,33.600 334.404,33.606 333.900 C 33.610 333.566,33.743 333.599,34.006 334.000 C 34.356 334.533,34.444 334.533,34.794 334.000 C 35.011 333.670,35.191 333.590,35.194 333.822 C 35.204 334.502,38.420 334.412,38.685 333.724 C 38.869 333.242,38.973 333.231,39.243 333.666 C 39.780 334.530,42.515 334.341,43.086 333.400 C 43.558 332.622,43.572 332.625,43.586 333.521 C 43.603 334.654,48.794 334.756,48.798 333.624 C 48.799 333.213,48.966 333.271,49.376 333.824 C 49.852 334.466,50.085 334.519,50.724 334.129 C 51.280 333.790,51.619 333.779,51.932 334.092 C 52.244 334.404,52.561 334.368,53.060 333.963 C 53.663 333.473,53.710 333.478,53.418 334.000 C 53.145 334.488,53.183 334.507,53.621 334.100 C 54.262 333.506,54.951 333.432,54.603 333.995 C 54.463 334.222,54.623 334.289,54.977 334.154 C 55.317 334.023,55.493 333.710,55.368 333.458 C 55.243 333.206,55.399 333.315,55.714 333.700 C 56.030 334.085,56.515 334.400,56.793 334.400 C 57.182 334.400,57.172 334.248,56.749 333.738 C 56.242 333.127,56.291 333.122,57.400 333.671 C 58.991 334.458,61.786 334.631,61.356 333.915 C 61.115 333.515,61.175 333.502,61.623 333.860 C 62.299 334.398,75.600 334.424,75.600 333.886 C 75.600 333.703,75.825 333.698,76.100 333.876 C 76.830 334.349,82.399 334.283,82.406 333.802 C 82.409 333.581,82.584 333.670,82.794 334.000 C 83.117 334.508,83.307 334.518,84.030 334.070 C 84.499 333.779,84.764 333.734,84.618 333.970 C 84.457 334.232,84.715 334.388,85.276 334.368 C 85.784 334.351,85.975 334.246,85.700 334.135 C 85.425 334.024,85.200 333.740,85.200 333.505 C 85.200 333.269,85.529 333.374,85.931 333.738 C 86.749 334.478,90.582 334.676,91.000 334.000 C 91.136 333.780,91.517 333.600,91.847 333.600 C 92.177 333.600,92.336 333.780,92.200 334.000 C 92.048 334.247,92.729 334.400,93.976 334.400 C 96.116 334.400,96.410 334.188,95.347 333.411 C 94.743 332.969,94.743 332.933,95.347 332.933 C 95.706 332.933,96.000 333.083,96.000 333.267 C 96.000 333.450,96.135 333.579,96.300 333.553 C 97.095 333.427,97.623 333.640,97.402 333.997 C 97.071 334.533,99.314 334.356,99.694 333.817 C 99.897 333.529,99.990 333.530,99.994 333.822 C 100.005 334.597,103.227 334.511,103.843 333.719 C 104.358 333.057,104.383 333.055,104.158 333.700 C 103.884 334.487,105.346 334.735,105.812 333.981 C 105.972 333.722,106.249 333.701,106.536 333.926 C 107.171 334.425,108.399 334.364,108.406 333.833 C 108.409 333.595,108.576 333.658,108.776 333.974 C 109.091 334.473,109.232 334.473,109.846 333.974 C 110.288 333.615,110.441 333.588,110.253 333.900 C 109.888 334.508,110.199 334.536,111.226 333.986 C 111.760 333.700,112.000 333.700,112.000 333.986 C 112.000 334.596,116.287 334.515,116.535 333.900 C 116.696 333.500,116.743 333.500,116.768 333.900 C 116.786 334.175,116.991 334.400,117.224 334.400 C 117.457 334.400,117.536 334.220,117.400 334.000 C 117.264 333.780,117.534 333.600,118.000 333.600 C 118.571 333.600,118.749 333.763,118.547 334.100 C 118.343 334.440,118.463 334.424,118.923 334.051 C 119.295 333.749,119.600 333.682,119.600 333.901 C 119.600 334.120,120.050 334.300,120.600 334.300 C 121.150 334.300,121.600 334.120,121.600 333.901 C 121.600 333.643,121.776 333.647,122.100 333.914 C 122.659 334.374,130.460 334.421,130.177 333.962 C 129.979 333.642,130.765 333.694,131.400 334.042 C 132.268 334.519,136.000 334.404,136.006 333.900 C 136.010 333.566,136.143 333.599,136.406 334.000 C 136.756 334.533,136.844 334.533,137.194 334.000 C 137.411 333.670,137.591 333.590,137.594 333.822 C 137.604 334.502,140.820 334.412,141.085 333.724 C 141.269 333.242,141.373 333.231,141.643 333.666 C 142.180 334.530,144.915 334.341,145.486 333.400 C 145.958 332.622,145.972 332.625,145.986 333.521 C 146.003 334.654,151.194 334.756,151.198 333.624 C 151.199 333.213,151.366 333.271,151.776 333.824 C 152.252 334.466,152.485 334.519,153.124 334.129 C 153.680 333.790,154.019 333.779,154.332 334.092 C 154.644 334.404,154.961 334.368,155.460 333.963 C 156.063 333.473,156.110 333.478,155.818 334.000 C 155.545 334.488,155.583 334.507,156.021 334.100 C 156.662 333.506,157.351 333.432,157.003 333.995 C 156.863 334.222,157.023 334.289,157.377 334.154 C 157.717 334.023,157.893 333.710,157.768 333.458 C 157.643 333.206,157.799 333.315,158.114 333.700 C 158.430 334.085,158.915 334.400,159.193 334.400 C 159.582 334.400,159.572 334.248,159.149 333.738 C 158.642 333.127,158.691 333.122,159.800 333.671 C 161.391 334.458,164.186 334.631,163.756 333.915 C 163.515 333.515,163.575 333.502,164.023 333.860 C 164.699 334.398,178.000 334.424,178.000 333.886 C 178.000 333.703,178.225 333.698,178.500 333.876 C 179.230 334.349,184.799 334.283,184.806 333.802 C 184.809 333.581,184.984 333.670,185.194 334.000 C 185.517 334.508,185.707 334.518,186.430 334.070 C 186.899 333.779,187.164 333.734,187.018 333.970 C 186.857 334.232,187.115 334.388,187.676 334.368 C 188.184 334.351,188.375 334.246,188.100 334.135 C 187.825 334.024,187.600 333.740,187.600 333.505 C 187.600 333.269,187.929 333.374,188.331 333.738 C 189.149 334.478,192.982 334.676,193.400 334.000 C 193.536 333.780,193.917 333.600,194.247 333.600 C 194.577 333.600,194.736 333.780,194.600 334.000 C 194.448 334.247,195.129 334.400,196.376 334.400 C 198.516 334.400,198.810 334.188,197.747 333.411 C 197.143 332.969,197.143 332.933,197.747 332.933 C 198.106 332.933,198.400 333.083,198.400 333.267 C 198.400 333.450,198.535 333.579,198.700 333.553 C 199.495 333.427,200.023 333.640,199.802 333.997 C 199.471 334.533,201.714 334.356,202.094 333.817 C 202.297 333.529,202.390 333.530,202.394 333.822 C 202.405 334.597,205.627 334.511,206.243 333.719 C 206.758 333.057,206.783 333.055,206.558 333.700 C 206.284 334.487,207.746 334.735,208.212 333.981 C 208.372 333.722,208.649 333.701,208.936 333.926 C 209.571 334.425,210.799 334.364,210.806 333.833 C 210.809 333.595,210.976 333.658,211.176 333.974 C 211.491 334.473,211.632 334.473,212.246 333.974 C 212.688 333.615,212.841 333.588,212.653 333.900 C 212.288 334.508,212.599 334.536,213.626 333.986 C 214.160 333.700,214.400 333.700,214.400 333.986 C 214.400 334.596,218.687 334.515,218.935 333.900 C 219.096 333.500,219.143 333.500,219.168 333.900 C 219.186 334.175,219.391 334.400,219.624 334.400 C 219.857 334.400,219.936 334.220,219.800 334.000 C 219.664 333.780,219.934 333.600,220.400 333.600 C 220.971 333.600,221.149 333.763,220.947 334.100 C 220.743 334.440,220.863 334.424,221.323 334.051 C 221.695 333.749,222.000 333.682,222.000 333.901 C 222.000 334.120,222.450 334.300,223.000 334.300 C 223.550 334.300,224.000 334.120,224.000 333.901 C 224.000 333.643,224.176 333.647,224.500 333.914 C 225.059 334.374,232.860 334.421,232.577 333.962 C 232.379 333.642,233.165 333.694,233.800 334.042 C 234.668 334.519,238.400 334.404,238.406 333.900 C 238.410 333.566,238.543 333.599,238.806 334.000 C 239.156 334.533,239.244 334.533,239.594 334.000 C 239.811 333.670,239.991 333.590,239.994 333.822 C 240.004 334.502,243.220 334.412,243.485 333.724 C 243.669 333.242,243.773 333.231,244.043 333.666 C 244.580 334.530,247.315 334.341,247.886 333.400 C 248.358 332.622,248.372 332.625,248.386 333.521 C 248.403 334.654,253.594 334.756,253.598 333.624 C 253.599 333.213,253.766 333.271,254.176 333.824 C 254.652 334.466,254.885 334.519,255.524 334.129 C 256.080 333.790,256.419 333.779,256.732 334.092 C 257.044 334.404,257.361 334.368,257.860 333.963 C 258.463 333.473,258.510 333.478,258.218 334.000 C 257.945 334.488,257.983 334.507,258.421 334.100 C 259.062 333.506,259.751 333.432,259.403 333.995 C 259.263 334.222,259.423 334.289,259.777 334.154 C 260.117 334.023,260.293 333.710,260.168 333.458 C 260.043 333.206,260.199 333.315,260.514 333.700 C 260.830 334.085,261.315 334.400,261.593 334.400 C 261.982 334.400,261.972 334.248,261.549 333.738 C 261.042 333.127,261.091 333.122,262.200 333.671 C 263.791 334.458,266.586 334.631,266.156 333.915 C 265.915 333.515,265.975 333.502,266.423 333.860 C 267.099 334.398,280.400 334.424,280.400 333.886 C 280.400 333.703,280.625 333.698,280.900 333.876 C 281.630 334.349,287.199 334.283,287.206 333.802 C 287.209 333.581,287.384 333.670,287.594 334.000 C 287.917 334.508,288.107 334.518,288.830 334.070 C 289.299 333.779,289.564 333.734,289.418 333.970 C 289.257 334.232,289.515 334.388,290.076 334.368 C 290.584 334.351,290.775 334.246,290.500 334.135 C 290.225 334.024,290.000 333.740,290.000 333.505 C 290.000 333.269,290.329 333.374,290.731 333.738 C 291.549 334.478,295.382 334.676,295.800 334.000 C 295.936 333.780,296.317 333.600,296.647 333.600 C 296.977 333.600,297.136 333.780,297.000 334.000 C 296.848 334.247,297.529 334.400,298.776 334.400 C 300.916 334.400,301.210 334.188,300.147 333.411 C 299.543 332.969,299.543 332.933,300.147 332.933 C 300.506 332.933,300.800 333.083,300.800 333.267 C 300.800 333.450,300.935 333.579,301.100 333.553 C 301.895 333.427,302.423 333.640,302.202 333.997 C 301.871 334.533,304.114 334.356,304.494 333.817 C 304.697 333.529,304.790 333.530,304.794 333.822 C 304.805 334.597,308.027 334.511,308.643 333.719 C 309.158 333.057,309.183 333.055,308.958 333.700 C 308.684 334.487,310.146 334.735,310.612 333.981 C 310.772 333.722,311.049 333.701,311.336 333.926 C 311.971 334.425,313.199 334.364,313.206 333.833 C 313.209 333.595,313.376 333.658,313.576 333.974 C 313.891 334.473,314.032 334.473,314.646 333.974 C 315.088 333.615,315.241 333.588,315.053 333.900 C 314.688 334.508,314.999 334.536,316.026 333.986 C 316.560 333.700,316.800 333.700,316.800 333.986 C 316.800 334.596,321.087 334.515,321.335 333.900 C 321.496 333.500,321.543 333.500,321.568 333.900 C 321.586 334.175,321.791 334.400,322.024 334.400 C 322.257 334.400,322.336 334.220,322.200 334.000 C 322.064 333.780,322.334 333.600,322.800 333.600 C 323.371 333.600,323.549 333.763,323.347 334.100 C 323.143 334.440,323.263 334.424,323.723 334.051 C 324.095 333.749,324.400 333.682,324.400 333.901 C 324.400 334.120,324.850 334.300,325.400 334.300 C 325.950 334.300,326.400 334.120,326.400 333.901 C 326.400 333.643,326.576 333.647,326.900 333.914 C 327.459 334.374,335.260 334.421,334.977 333.962 C 334.779 333.642,335.565 333.694,336.200 334.042 C 337.068 334.519,340.800 334.404,340.806 333.900 C 340.810 333.566,340.943 333.599,341.206 334.000 C 341.556 334.533,341.644 334.533,341.994 334.000 C 342.211 333.670,342.391 333.590,342.394 333.822 C 342.404 334.502,345.620 334.412,345.885 333.724 C 346.069 333.242,346.173 333.231,346.443 333.666 C 346.980 334.530,349.715 334.341,350.286 333.400 C 350.758 332.622,350.772 332.625,350.786 333.521 C 350.803 334.654,355.994 334.756,355.998 333.624 C 355.999 333.213,356.166 333.271,356.576 333.824 C 357.052 334.466,357.285 334.519,357.924 334.129 C 358.480 333.790,358.819 333.779,359.132 334.092 C 359.444 334.404,359.761 334.368,360.260 333.963 C 360.863 333.473,360.910 333.478,360.618 334.000 C 360.345 334.488,360.383 334.507,360.821 334.100 C 361.462 333.506,362.151 333.432,361.803 333.995 C 361.663 334.222,361.823 334.289,362.177 334.154 C 362.517 334.023,362.693 333.710,362.568 333.458 C 362.443 333.206,362.599 333.315,362.914 333.700 C 363.230 334.085,363.715 334.400,363.993 334.400 C 364.382 334.400,364.372 334.248,363.949 333.738 C 363.442 333.127,363.491 333.122,364.600 333.671 C 366.191 334.458,368.986 334.631,368.556 333.915 C 368.315 333.515,368.375 333.502,368.823 333.860 C 369.499 334.398,382.800 334.424,382.800 333.886 C 382.800 333.703,383.025 333.698,383.300 333.876 C 384.030 334.349,389.599 334.283,389.606 333.802 C 389.609 333.581,389.784 333.670,389.994 334.000 C 390.317 334.508,390.507 334.518,391.230 334.070 C 391.699 333.779,391.964 333.734,391.818 333.970 C 391.657 334.232,391.915 334.388,392.476 334.368 C 392.984 334.351,393.175 334.246,392.900 334.135 C 392.625 334.024,392.400 333.740,392.400 333.505 C 392.400 333.269,392.729 333.374,393.131 333.738 C 393.949 334.478,397.782 334.676,398.200 334.000 C 398.336 333.780,398.717 333.600,399.047 333.600 C 399.377 333.600,399.536 333.780,399.400 334.000 C 399.264 334.220,399.343 334.400,399.576 334.400 C 399.874 334.400,400.000 284.612,400.000 167.200 L 400.000 0.000 200.000 0.000 L 0.000 0.000 0.000 167.200 M100.400 87.440 C 132.921 90.206,167.262 96.469,193.336 104.388 L 200.072 106.434 204.536 105.032 C 232.913 96.119,272.205 89.246,309.939 86.596 L 313.677 86.334 313.414 89.867 C 310.630 127.250,304.705 162.500,296.532 190.297 C 294.820 196.119,295.406 196.501,291.789 187.200 C 275.761 145.983,252.533 125.006,204.296 108.189 L 199.991 106.688 192.496 109.403 C 143.922 126.999,122.137 148.309,105.403 194.600 C 105.020 195.660,104.551 194.337,101.999 185.000 C 94.433 157.319,88.939 123.456,86.596 90.061 L 86.334 86.323 89.867 86.584 C 91.810 86.727,96.550 87.112,100.400 87.440 M209.400 164.572 C 237.693 173.028,246.266 208.451,224.948 228.810 C 202.041 250.688,164.086 236.534,160.829 204.900 C 158.107 178.451,183.974 156.974,209.400 164.572 M106.621 204.824 C 124.293 256.491,146.374 279.283,195.557 296.622 C 198.666 297.718,164.471 305.579,142.759 308.759 C 124.092 311.493,87.619 314.553,86.541 313.474 C 86.396 313.329,86.490 309.023,86.751 303.905 C 88.652 266.612,94.251 232.443,103.273 203.073 C 103.936 200.913,104.547 199.214,104.630 199.297 C 104.714 199.380,105.609 201.868,106.621 204.824 M298.215 208.037 C 306.571 236.913,311.875 271.515,313.433 307.300 L 313.707 313.600 311.354 313.600 C 300.386 313.599,275.014 311.326,257.419 308.769 C 235.933 305.646,201.281 297.723,204.400 296.647 C 253.144 279.827,276.431 255.720,293.628 204.276 C 294.741 200.947,295.451 199.348,295.655 199.712 C 295.828 200.021,296.980 203.767,298.215 208.037 " stroke="none" fill="#0f063c" fill-rule="evenodd"></path><path id="path1" d="M86.800 88.776 C 86.800 98.413,90.656 130.041,94.182 149.330 C 97.421 167.044,104.329 195.050,105.231 194.119 C 105.401 193.943,106.250 191.910,107.118 189.600 C 123.157 146.899,147.141 124.766,195.366 108.160 L 199.732 106.657 198.166 106.099 C 174.855 97.793,112.866 86.826,89.100 86.802 L 86.800 86.800 86.800 88.776 " stroke="none" fill="#bf2bda" fill-rule="evenodd"></path><path id="path2" d="M303.400 87.247 C 266.616 90.344,225.568 97.930,202.440 105.904 L 200.281 106.649 204.640 108.173 C 253.603 125.295,276.949 146.866,292.970 189.788 C 293.789 191.982,294.595 194.019,294.760 194.315 C 295.642 195.890,303.238 164.510,306.553 145.600 C 309.539 128.563,313.189 97.527,313.198 89.100 L 313.200 86.800 310.300 86.855 C 308.705 86.885,305.600 87.062,303.400 87.247 M104.048 201.198 C 103.554 202.846,103.935 203.935,104.814 203.391 C 104.953 203.305,105.097 203.497,105.133 203.818 C 105.170 204.138,105.230 204.667,105.267 204.994 C 105.315 205.424,105.472 205.472,105.837 205.169 C 106.238 204.837,106.196 204.330,105.631 202.676 C 105.242 201.534,104.841 200.349,104.742 200.042 C 104.643 199.735,104.330 200.255,104.048 201.198 " stroke="none" fill="#412ad0" fill-rule="evenodd"></path><path id="path3" d="M87.700 86.676 C 88.085 86.776,88.715 86.776,89.100 86.676 C 89.485 86.575,89.170 86.493,88.400 86.493 C 87.630 86.493,87.315 86.575,87.700 86.676 M311.677 86.690 C 313.051 86.835,313.165 86.949,313.310 88.323 L 313.466 89.800 313.533 88.100 L 313.600 86.400 311.900 86.467 L 310.200 86.534 311.677 86.690 M305.105 87.083 C 305.602 87.179,306.322 87.175,306.705 87.075 C 307.087 86.975,306.680 86.896,305.800 86.901 C 304.920 86.905,304.607 86.987,305.105 87.083 M86.493 88.400 C 86.493 89.170,86.575 89.485,86.676 89.100 C 86.776 88.715,86.776 88.085,86.676 87.700 C 86.575 87.315,86.493 87.630,86.493 88.400 M300.100 87.476 C 300.485 87.576,301.115 87.576,301.500 87.476 C 301.885 87.375,301.570 87.293,300.800 87.293 C 300.030 87.293,299.715 87.375,300.100 87.476 M312.893 94.400 C 312.893 95.170,312.975 95.485,313.076 95.100 C 313.176 94.715,313.176 94.085,313.076 93.700 C 312.975 93.315,312.893 93.630,312.893 94.400 M293.628 204.276 C 276.431 255.720,253.144 279.827,204.400 296.647 C 201.281 297.723,235.933 305.646,257.419 308.769 C 275.014 311.326,300.386 313.599,311.354 313.600 L 313.707 313.600 313.433 307.300 C 312.148 277.785,308.049 247.255,302.005 222.200 C 300.406 215.570,296.206 200.698,295.655 199.712 C 295.451 199.348,294.741 200.947,293.628 204.276 M160.493 201.200 C 160.493 201.970,160.575 202.285,160.676 201.900 C 160.776 201.515,160.776 200.885,160.676 200.500 C 160.575 200.115,160.493 200.430,160.493 201.200 M101.868 207.713 C 95.259 230.235,90.167 259.127,87.822 287.400 C 86.998 297.342,86.221 313.154,86.541 313.474 C 87.619 314.553,124.092 311.493,142.759 308.759 C 164.471 305.579,198.666 297.718,195.557 296.622 C 148.300 279.962,126.675 258.772,109.196 212.000 C 108.250 209.470,107.369 207.310,107.238 207.200 C 107.107 207.090,106.951 206.561,106.891 206.025 C 106.751 204.766,106.543 204.584,105.876 205.137 C 105.462 205.481,105.318 205.447,105.267 204.994 C 105.230 204.667,105.170 204.130,105.133 203.800 C 105.097 203.470,104.983 203.284,104.881 203.386 C 104.778 203.488,104.381 203.404,103.998 203.199 C 103.383 202.870,103.134 203.396,101.868 207.713 M197.905 239.483 C 198.402 239.579,199.122 239.575,199.505 239.475 C 199.887 239.375,199.480 239.296,198.600 239.301 C 197.720 239.305,197.407 239.387,197.905 239.483 M43.090 333.400 C 42.755 334.354,39.793 334.559,39.241 333.666 C 38.972 333.232,38.869 333.242,38.685 333.724 C 38.420 334.412,35.204 334.502,35.194 333.822 C 35.191 333.590,35.011 333.670,34.794 334.000 C 34.444 334.533,34.356 334.533,34.006 334.000 C 33.743 333.599,33.610 333.566,33.606 333.900 C 33.600 334.404,29.868 334.519,29.000 334.042 C 28.365 333.694,27.579 333.642,27.777 333.962 C 28.060 334.421,20.259 334.374,19.700 333.914 C 19.376 333.647,19.200 333.643,19.200 333.901 C 19.200 334.120,18.750 334.300,18.200 334.300 C 17.650 334.300,17.200 334.120,17.200 333.901 C 17.200 333.682,16.895 333.749,16.523 334.051 C 16.063 334.424,15.943 334.440,16.147 334.100 C 16.349 333.763,16.171 333.600,15.600 333.600 C 15.134 333.600,14.864 333.780,15.000 334.000 C 15.136 334.220,15.072 334.400,14.857 334.400 C 14.642 334.400,14.376 334.175,14.265 333.900 C 14.104 333.500,14.057 333.500,14.032 333.900 C 13.992 334.522,9.600 334.607,9.600 333.986 C 9.600 333.700,9.360 333.700,8.826 333.986 C 7.799 334.536,7.488 334.508,7.853 333.900 C 8.041 333.588,7.888 333.615,7.446 333.974 C 6.832 334.473,6.691 334.473,6.376 333.974 C 6.176 333.658,6.009 333.587,6.006 333.815 C 6.003 334.043,5.636 334.257,5.191 334.291 C 4.747 334.324,4.477 334.198,4.593 334.011 C 4.839 333.614,3.756 333.710,3.345 334.122 C 2.729 334.737,1.510 334.413,1.758 333.700 C 1.990 333.033,1.976 333.033,1.457 333.700 C 1.157 334.085,0.707 334.400,0.456 334.400 C 0.118 334.400,0.000 342.919,0.000 367.200 L 0.000 400.000 200.000 400.000 L 400.000 400.000 400.000 367.200 C 400.000 344.381,399.871 334.400,399.576 334.400 C 399.343 334.400,399.264 334.220,399.400 334.000 C 399.536 333.780,399.377 333.600,399.047 333.600 C 398.717 333.600,398.336 333.780,398.200 334.000 C 397.782 334.676,393.949 334.478,393.131 333.738 C 392.729 333.374,392.400 333.269,392.400 333.505 C 392.400 333.740,392.625 334.024,392.900 334.135 C 393.175 334.246,392.984 334.351,392.476 334.368 C 391.915 334.388,391.657 334.232,391.818 333.970 C 391.964 333.734,391.699 333.779,391.230 334.070 C 390.507 334.518,390.317 334.508,389.994 334.000 C 389.784 333.670,389.609 333.581,389.606 333.802 C 389.599 334.283,384.030 334.349,383.300 333.876 C 383.025 333.698,382.800 333.703,382.800 333.886 C 382.800 334.424,369.499 334.398,368.823 333.860 C 368.375 333.502,368.315 333.515,368.556 333.915 C 368.986 334.631,366.191 334.458,364.600 333.671 C 363.491 333.122,363.442 333.127,363.949 333.738 C 364.372 334.248,364.382 334.400,363.993 334.400 C 363.715 334.400,363.230 334.085,362.914 333.700 C 362.599 333.315,362.443 333.206,362.568 333.458 C 362.693 333.710,362.517 334.023,362.177 334.154 C 361.823 334.289,361.663 334.222,361.803 333.995 C 362.151 333.432,361.462 333.506,360.821 334.100 C 360.383 334.507,360.345 334.488,360.618 334.000 C 360.910 333.478,360.863 333.473,360.260 333.963 C 359.761 334.368,359.444 334.404,359.132 334.092 C 358.819 333.779,358.480 333.790,357.924 334.129 C 357.285 334.519,357.052 334.466,356.576 333.824 C 356.166 333.271,355.999 333.213,355.998 333.624 C 355.994 334.756,350.803 334.654,350.786 333.521 C 350.772 332.625,350.758 332.622,350.286 333.400 C 349.715 334.341,346.980 334.530,346.443 333.666 C 346.173 333.231,346.069 333.242,345.885 333.724 C 345.620 334.412,342.404 334.502,342.394 333.822 C 342.391 333.590,342.211 333.670,341.994 334.000 C 341.644 334.533,341.556 334.533,341.206 334.000 C 340.943 333.599,340.810 333.566,340.806 333.900 C 340.800 334.404,337.068 334.519,336.200 334.042 C 335.565 333.694,334.779 333.642,334.977 333.962 C 335.260 334.421,327.459 334.374,326.900 333.914 C 326.576 333.647,326.400 333.643,326.400 333.901 C 326.400 334.120,325.950 334.300,325.400 334.300 C 324.850 334.300,324.400 334.120,324.400 333.901 C 324.400 333.682,324.095 333.749,323.723 334.051 C 323.263 334.424,323.143 334.440,323.347 334.100 C 323.549 333.763,323.371 333.600,322.800 333.600 C 322.334 333.600,322.064 333.780,322.200 334.000 C 322.336 334.220,322.272 334.400,322.057 334.400 C 321.842 334.400,321.576 334.175,321.465 333.900 C 321.304 333.500,321.257 333.500,321.232 333.900 C 321.192 334.522,316.800 334.607,316.800 333.986 C 316.800 333.700,316.560 333.700,316.026 333.986 C 314.999 334.536,314.688 334.508,315.053 333.900 C 315.241 333.588,315.088 333.615,314.646 333.974 C 314.032 334.473,313.891 334.473,313.576 333.974 C 313.376 333.658,313.209 333.595,313.206 333.833 C 313.199 334.364,311.971 334.425,311.336 333.926 C 311.049 333.701,310.772 333.722,310.612 333.981 C 310.146 334.735,308.684 334.487,308.958 333.700 C 309.183 333.055,309.158 333.057,308.643 333.719 C 308.027 334.511,304.805 334.597,304.794 333.822 C 304.790 333.530,304.697 333.529,304.494 333.817 C 304.114 334.356,301.871 334.533,302.202 333.997 C 302.423 333.640,301.895 333.427,301.100 333.553 C 300.935 333.579,300.800 333.450,300.800 333.267 C 300.800 333.083,300.506 332.933,300.147 332.933 C 299.543 332.933,299.543 332.969,300.147 333.411 C 301.210 334.188,300.916 334.400,298.776 334.400 C 297.529 334.400,296.848 334.247,297.000 334.000 C 297.136 333.780,296.977 333.600,296.647 333.600 C 296.317 333.600,295.936 333.780,295.800 334.000 C 295.382 334.676,291.549 334.478,290.731 333.738 C 290.329 333.374,290.000 333.269,290.000 333.505 C 290.000 333.740,290.225 334.024,290.500 334.135 C 290.775 334.246,290.584 334.351,290.076 334.368 C 289.515 334.388,289.257 334.232,289.418 333.970 C 289.564 333.734,289.299 333.779,288.830 334.070 C 288.107 334.518,287.917 334.508,287.594 334.000 C 287.384 333.670,287.209 333.581,287.206 333.802 C 287.199 334.283,281.630 334.349,280.900 333.876 C 280.625 333.698,280.400 333.703,280.400 333.886 C 280.400 334.424,267.099 334.398,266.423 333.860 C 265.975 333.502,265.915 333.515,266.156 333.915 C 266.586 334.631,263.791 334.458,262.200 333.671 C 261.091 333.122,261.042 333.127,261.549 333.738 C 261.972 334.248,261.982 334.400,261.593 334.400 C 261.315 334.400,260.830 334.085,260.514 333.700 C 260.199 333.315,260.043 333.206,260.168 333.458 C 260.293 333.710,260.117 334.023,259.777 334.154 C 259.423 334.289,259.263 334.222,259.403 333.995 C 259.751 333.432,259.062 333.506,258.421 334.100 C 257.983 334.507,257.945 334.488,258.218 334.000 C 258.510 333.478,258.463 333.473,257.860 333.963 C 257.361 334.368,257.044 334.404,256.732 334.092 C 256.419 333.779,256.080 333.790,255.524 334.129 C 254.885 334.519,254.652 334.466,254.176 333.824 C 253.766 333.271,253.599 333.213,253.598 333.624 C 253.594 334.756,248.403 334.654,248.386 333.521 C 248.372 332.625,248.358 332.622,247.886 333.400 C 247.315 334.341,244.580 334.530,244.043 333.666 C 243.773 333.231,243.669 333.242,243.485 333.724 C 243.220 334.412,240.004 334.502,239.994 333.822 C 239.991 333.590,239.811 333.670,239.594 334.000 C 239.244 334.533,239.156 334.533,238.806 334.000 C 238.543 333.599,238.410 333.566,238.406 333.900 C 238.400 334.404,234.668 334.519,233.800 334.042 C 233.165 333.694,232.379 333.642,232.577 333.962 C 232.860 334.421,225.059 334.374,224.500 333.914 C 224.176 333.647,224.000 333.643,224.000 333.901 C 224.000 334.120,223.550 334.300,223.000 334.300 C 222.450 334.300,222.000 334.120,222.000 333.901 C 222.000 333.682,221.695 333.749,221.323 334.051 C 220.863 334.424,220.743 334.440,220.947 334.100 C 221.149 333.763,220.971 333.600,220.400 333.600 C 219.934 333.600,219.664 333.780,219.800 334.000 C 219.936 334.220,219.872 334.400,219.657 334.400 C 219.442 334.400,219.176 334.175,219.065 333.900 C 218.904 333.500,218.857 333.500,218.832 333.900 C 218.792 334.522,214.400 334.607,214.400 333.986 C 214.400 333.700,214.160 333.700,213.626 333.986 C 212.599 334.536,212.288 334.508,212.653 333.900 C 212.841 333.588,212.688 333.615,212.246 333.974 C 211.632 334.473,211.491 334.473,211.176 333.974 C 210.976 333.658,210.809 333.595,210.806 333.833 C 210.799 334.364,209.571 334.425,208.936 333.926 C 208.649 333.701,208.372 333.722,208.212 333.981 C 207.746 334.735,206.284 334.487,206.558 333.700 C 206.783 333.055,206.758 333.057,206.243 333.719 C 205.627 334.511,202.405 334.597,202.394 333.822 C 202.390 333.530,202.297 333.529,202.094 333.817 C 201.714 334.356,199.471 334.533,199.802 333.997 C 200.023 333.640,199.495 333.427,198.700 333.553 C 198.535 333.579,198.400 333.450,198.400 333.267 C 198.400 333.083,198.106 332.933,197.747 332.933 C 197.143 332.933,197.143 332.969,197.747 333.411 C 198.810 334.188,198.516 334.400,196.376 334.400 C 195.129 334.400,194.448 334.247,194.600 334.000 C 194.736 333.780,194.577 333.600,194.247 333.600 C 193.917 333.600,193.536 333.780,193.400 334.000 C 192.982 334.676,189.149 334.478,188.331 333.738 C 187.929 333.374,187.600 333.269,187.600 333.505 C 187.600 333.740,187.825 334.024,188.100 334.135 C 188.375 334.246,188.184 334.351,187.676 334.368 C 187.115 334.388,186.857 334.232,187.018 333.970 C 187.164 333.734,186.899 333.779,186.430 334.070 C 185.707 334.518,185.517 334.508,185.194 334.000 C 184.984 333.670,184.809 333.581,184.806 333.802 C 184.799 334.283,179.230 334.349,178.500 333.876 C 178.225 333.698,178.000 333.703,178.000 333.886 C 178.000 334.424,164.699 334.398,164.023 333.860 C 163.575 333.502,163.515 333.515,163.756 333.915 C 164.186 334.631,161.391 334.458,159.800 333.671 C 158.691 333.122,158.642 333.127,159.149 333.738 C 159.572 334.248,159.582 334.400,159.193 334.400 C 158.915 334.400,158.430 334.085,158.114 333.700 C 157.799 333.315,157.643 333.206,157.768 333.458 C 157.893 333.710,157.717 334.023,157.377 334.154 C 157.023 334.289,156.863 334.222,157.003 333.995 C 157.351 333.432,156.662 333.506,156.021 334.100 C 155.583 334.507,155.545 334.488,155.818 334.000 C 156.110 333.478,156.063 333.473,155.460 333.963 C 154.961 334.368,154.644 334.404,154.332 334.092 C 154.019 333.779,153.680 333.790,153.124 334.129 C 152.485 334.519,152.252 334.466,151.776 333.824 C 151.366 333.271,151.199 333.213,151.198 333.624 C 151.194 334.756,146.003 334.654,145.986 333.521 C 145.972 332.625,145.958 332.622,145.486 333.400 C 144.915 334.341,142.180 334.530,141.643 333.666 C 141.373 333.231,141.269 333.242,141.085 333.724 C 140.820 334.412,137.604 334.502,137.594 333.822 C 137.591 333.590,137.411 333.670,137.194 334.000 C 136.844 334.533,136.756 334.533,136.406 334.000 C 136.143 333.599,136.010 333.566,136.006 333.900 C 136.000 334.404,132.268 334.519,131.400 334.042 C 130.765 333.694,129.979 333.642,130.177 333.962 C 130.460 334.421,122.659 334.374,122.100 333.914 C 121.776 333.647,121.600 333.643,121.600 333.901 C 121.600 334.120,121.150 334.300,120.600 334.300 C 120.050 334.300,119.600 334.120,119.600 333.901 C 119.600 333.682,119.295 333.749,118.923 334.051 C 118.463 334.424,118.343 334.440,118.547 334.100 C 118.749 333.763,118.571 333.600,118.000 333.600 C 117.534 333.600,117.264 333.780,117.400 334.000 C 117.536 334.220,117.472 334.400,117.257 334.400 C 117.042 334.400,116.776 334.175,116.665 333.900 C 116.504 333.500,116.457 333.500,116.432 333.900 C 116.392 334.522,112.000 334.607,112.000 333.986 C 112.000 333.700,111.760 333.700,111.226 333.986 C 110.199 334.536,109.888 334.508,110.253 333.900 C 110.441 333.588,110.288 333.615,109.846 333.974 C 109.232 334.473,109.091 334.473,108.776 333.974 C 108.576 333.658,108.409 333.595,108.406 333.833 C 108.399 334.364,107.171 334.425,106.536 333.926 C 106.249 333.701,105.972 333.722,105.812 333.981 C 105.346 334.735,103.884 334.487,104.158 333.700 C 104.383 333.055,104.358 333.057,103.843 333.719 C 103.227 334.511,100.005 334.597,99.994 333.822 C 99.990 333.530,99.897 333.529,99.694 333.817 C 99.314 334.356,97.071 334.533,97.402 333.997 C 97.623 333.640,97.095 333.427,96.300 333.553 C 96.135 333.579,96.000 333.450,96.000 333.267 C 96.000 333.083,95.706 332.933,95.347 332.933 C 94.743 332.933,94.743 332.969,95.347 333.411 C 96.410 334.188,96.116 334.400,93.976 334.400 C 92.729 334.400,92.048 334.247,92.200 334.000 C 92.336 333.780,92.177 333.600,91.847 333.600 C 91.517 333.600,91.136 333.780,91.000 334.000 C 90.582 334.676,86.749 334.478,85.931 333.738 C 85.529 333.374,85.200 333.269,85.200 333.505 C 85.200 333.740,85.425 334.024,85.700 334.135 C 85.975 334.246,85.784 334.351,85.276 334.368 C 84.715 334.388,84.457 334.232,84.618 333.970 C 84.764 333.734,84.499 333.779,84.030 334.070 C 83.307 334.518,83.117 334.508,82.794 334.000 C 82.584 333.670,82.409 333.581,82.406 333.802 C 82.399 334.283,76.830 334.349,76.100 333.876 C 75.825 333.698,75.600 333.703,75.600 333.886 C 75.600 334.424,62.299 334.398,61.623 333.860 C 61.175 333.502,61.115 333.515,61.356 333.915 C 61.786 334.631,58.991 334.458,57.400 333.671 C 56.291 333.122,56.242 333.127,56.749 333.738 C 57.172 334.248,57.182 334.400,56.793 334.400 C 56.515 334.400,56.030 334.085,55.714 333.700 C 55.399 333.315,55.243 333.206,55.368 333.458 C 55.493 333.710,55.317 334.023,54.977 334.154 C 54.623 334.289,54.463 334.222,54.603 333.995 C 54.951 333.432,54.262 333.506,53.621 334.100 C 53.183 334.507,53.145 334.488,53.418 334.000 C 53.710 333.478,53.663 333.473,53.060 333.963 C 52.561 334.368,52.244 334.404,51.932 334.092 C 51.619 333.779,51.280 333.790,50.724 334.129 C 50.085 334.519,49.852 334.466,49.376 333.824 C 48.966 333.271,48.799 333.213,48.798 333.624 C 48.794 334.748,43.694 334.648,43.516 333.519 C 43.379 332.651,43.355 332.644,43.090 333.400 " stroke="none" fill="#31167a" fill-rule="evenodd"></path><path id="path4" d="M193.400 163.640 C 162.470 168.055,149.931 206.223,172.190 228.200 C 193.074 248.820,228.343 238.936,235.595 210.430 C 242.173 184.576,219.884 159.860,193.400 163.640 " stroke="none" fill="#33ceee" fill-rule="evenodd"></path></g></svg>