<svg xmlns:xlink="http://www.w3.org/1999/xlink" data-v-4abea271="" data-v-c66ca5ea="" width="200" height="200" viewBox="0 0 100 100" fill="none" xmlns="http://www.w3.org/2000/svg" class="NuxtLogo"><path data-v-4abea271="" d="M82.5267 17.4733C82.5267 17.4733 80.9906 53.956 66.8448 68.1018C52.6989 82.2477 17.4733 82.5267 17.4733 82.5267C17.4733 82.5267 17.7524 47.3011 31.8982 33.1553C46.044 19.0094 82.5267 17.4733 82.5267 17.4733Z" fill="url(&quot;#paint0_linear&quot;)"></path> <path data-v-4abea271="" d="M17.4733 17.4733C17.4733 17.4733 19.0094 53.956 33.1552 68.1018C47.3011 82.2477 82.5267 82.5267 82.5267 82.5267C82.5267 82.5267 82.2476 47.3011 68.1018 33.1553C53.956 19.0094 17.4733 17.4733 17.4733 17.4733Z" fill="url(&quot;#paint1_linear&quot;)"></path> <path data-v-4abea271="" fill-rule="evenodd" clip-rule="evenodd" d="M50.0063 23.2394C42.8921 25.5675 36.1647 28.8072 31.6666 33.3053C27.6015 37.3703 24.6667 43.1535 22.5481 49.3532C24.8969 56.8402 28.228 63.9989 32.9402 68.711C37.227 72.9978 43.4245 76.0277 50.0063 78.169C56.588 76.0277 62.7855 72.9978 67.0723 68.7111C71.7845 63.9989 75.1156 56.8402 77.4644 49.3532C75.3458 43.1535 72.411 37.3703 68.3459 33.3053C63.8478 28.8072 57.1205 25.5675 50.0063 23.2394Z" fill="url(&quot;#paint2_linear&quot;)"></path> <circle data-v-4abea271="" cx="49.6479" cy="50.3521" r="10.9155" fill="url(&quot;#paint3_linear&quot;)"></circle> <defs data-v-4abea271=""><linearGradient data-v-4abea271="" id="paint0_linear" x1="55.733" y1="25.6887" x2="15.111" y2="84.1773" gradientUnits="userSpaceOnUse"><stop data-v-4abea271="" stop-color="#4A30EB"></stop> <stop data-v-4abea271="" offset="1" stop-color="#4A30EB" stop-opacity="0.3"></stop></linearGradient> <linearGradient data-v-4abea271="" id="paint1_linear" x1="31.2887" y1="19.5554" x2="66.2218" y2="89.4217" gradientUnits="userSpaceOnUse"><stop data-v-4abea271="" stop-color="#D130EB"></stop> <stop data-v-4abea271="" offset="1" stop-color="#D130EB" stop-opacity="0.3"></stop></linearGradient> <linearGradient data-v-4abea271="" id="paint2_linear" x1="50.1313" y1="17.1916" x2="50.1313" y2="121.916" gradientUnits="userSpaceOnUse"><stop data-v-4abea271="" offset="0.478949" stop-color="#09052D"></stop> <stop data-v-4abea271="" offset="1" stop-color="#4A30EB"></stop></linearGradient> <linearGradient data-v-4abea271="" id="paint3_linear" x1="49.6479" y1="39.4366" x2="49.6479" y2="61.2676" gradientUnits="userSpaceOnUse"><stop data-v-4abea271="" stop-color="#30A8EB"></stop> <stop data-v-4abea271="" offset="1" stop-color="#39FFF3"></stop></linearGradient><linearGradient data-v-4abea271="" id="paint0_linear" x1="55.733" y1="25.6887" x2="15.111" y2="84.1773" gradientUnits="userSpaceOnUse"><stop data-v-4abea271="" stop-color="#4A30EB"></stop> <stop data-v-4abea271="" offset="1" stop-color="#4A30EB" stop-opacity="0.3"></stop></linearGradient><linearGradient data-v-4abea271="" id="paint1_linear" x1="31.2887" y1="19.5554" x2="66.2218" y2="89.4217" gradientUnits="userSpaceOnUse"><stop data-v-4abea271="" stop-color="#D130EB"></stop> <stop data-v-4abea271="" offset="1" stop-color="#D130EB" stop-opacity="0.3"></stop></linearGradient><linearGradient data-v-4abea271="" id="paint2_linear" x1="50.1313" y1="17.1916" x2="50.1313" y2="121.916" gradientUnits="userSpaceOnUse"><stop data-v-4abea271="" offset="0.478949" stop-color="#09052D"></stop> <stop data-v-4abea271="" offset="1" stop-color="#4A30EB"></stop></linearGradient><linearGradient data-v-4abea271="" id="paint3_linear" x1="49.6479" y1="39.4366" x2="49.6479" y2="61.2676" gradientUnits="userSpaceOnUse"><stop data-v-4abea271="" stop-color="#30A8EB"></stop> <stop data-v-4abea271="" offset="1" stop-color="#39FFF3"></stop></linearGradient></defs></svg>